<svg xmlns="http://www.w3.org/2000/svg" xmlns:xlink="http://www.w3.org/1999/xlink" width="500" zoomAndPan="magnify" viewBox="0 0 375 374.999991" height="500" preserveAspectRatio="xMidYMid meet" version="1.0"><defs><g/><clipPath id="117b0b82e1"><path d="M 0 32 L 49 32 L 49 134.582031 L 0 134.582031 Z M 0 32 " clip-rule="nonzero"/></clipPath><clipPath id="cbe93c0fa9"><path d="M 44 0 L 142.582031 0 L 142.582031 67 L 44 67 Z M 44 0 " clip-rule="nonzero"/></clipPath><clipPath id="571268bbd7"><path d="M 88.621094 85.210938 L 286.371094 85.210938 L 286.371094 216.84375 L 88.621094 216.84375 Z M 88.621094 85.210938 " clip-rule="nonzero"/></clipPath><clipPath id="692e4b66a0"><path d="M 321 272.632812 L 375 272.632812 L 375 375 L 321 375 Z M 321 272.632812 " clip-rule="nonzero"/></clipPath><clipPath id="6691da76da"><path d="M 266.984375 319 L 363 319 L 363 375 L 266.984375 375 Z M 266.984375 319 " clip-rule="nonzero"/></clipPath></defs><rect x="-37.5" width="450" fill="#ffffff" y="-37.499999" height="449.999989" fill-opacity="1"/><rect x="-37.5" width="450" fill="#f3f3f3" y="-37.499999" height="449.999989" fill-opacity="1"/><path fill="#2f2f2f" d="M 3.097656 38.761719 C -13.207031 38.828125 -28.871094 45.113281 -43.023438 52.984375 C -55.636719 60.273438 -67.671875 71.128906 -71.558594 85.988281 C -74.878906 99.113281 -69.933594 113.582031 -60.636719 122.867188 C -50.875 132.246094 -36.496094 134.089844 -23.746094 132.109375 C -8.914062 129.691406 5.25 123.574219 17.925781 115.386719 C 29.3125 107.816406 39.601562 96.644531 41.933594 82.4375 C 43.730469 70.351562 39.652344 59.117188 31.210938 50.621094 C 26.898438 56.554688 23.179688 61.726562 20.511719 68.644531 C 20.128906 72.046875 21.871094 75.210938 20.6875 78.988281 C 19.007812 87.839844 11.527344 93.792969 4.5 98.324219 C -6.027344 104.523438 -17.542969 109.6875 -29.734375 110.886719 C -36.695312 111.539062 -45.015625 109.925781 -48.792969 103.191406 C -52.320312 97.632812 -51.59375 90.121094 -47.703125 84.964844 C -40.558594 75.089844 -29.28125 69.707031 -18.441406 65.269531 C -11.84375 62.730469 -5.90625 60.96875 1.1875 60.902344 C 2.851562 53.324219 6.457031 45.980469 10.640625 39.550781 C 7.90625 39.066406 5.875 38.78125 3.097656 38.761719 Z M 3.097656 38.761719 " fill-opacity="1" fill-rule="nonzero"/><g clip-path="url(#117b0b82e1)"><path stroke-linecap="butt" transform="matrix(0.860638, 0, 0, 0.860638, -73.399049, -70.427237)" fill="none" stroke-linejoin="miter" d="M 88.88373 126.8698 C 69.938843 126.946959 51.738317 134.249864 35.2943 143.395515 C 20.638564 151.864887 6.654569 164.47817 2.138478 181.743707 C -1.719489 196.994023 4.026613 213.805681 14.82892 224.594372 C 26.171343 235.491994 42.878609 237.634301 57.693202 235.333137 C 74.926968 232.523629 91.384601 225.415893 106.112957 215.9026 C 119.343514 207.106435 131.298673 194.125511 134.008328 177.617951 C 136.096168 163.574952 131.357677 150.521407 121.549364 140.64955 C 116.538545 147.543964 112.217622 153.553315 109.117632 161.591503 C 108.672832 165.544784 110.69713 169.2212 109.321878 173.610204 C 107.3702 183.89509 98.678428 190.812198 90.513154 196.077188 C 78.28113 203.28024 64.900792 209.280513 50.735245 210.67392 C 42.647131 211.431897 32.97952 209.557379 28.590515 201.732514 C 24.491993 195.273824 25.336207 186.545741 29.856836 180.554545 C 38.158273 169.080497 51.261744 162.826052 63.856872 157.669993 C 71.522879 154.719783 78.421832 152.672791 86.664265 152.595632 C 88.597787 143.790389 92.787085 135.257474 97.648124 127.786635 C 94.470974 127.223825 92.110806 126.892494 88.88373 126.8698 Z M 88.88373 126.8698 " stroke="#000000" stroke-width="1.25" stroke-opacity="1" stroke-miterlimit="4"/></g><path stroke-linecap="butt" transform="matrix(0.860638, 0, 0, 0.860638, -73.399049, -70.427237)" fill-opacity="1" fill="#2f2f2f" fill-rule="nonzero" stroke-linejoin="miter" d="M 169.229296 80.174784 C 156.153058 80.63774 143.399073 85.226451 132.678464 92.901536 C 118.953179 102.691694 106.96171 115.177891 97.770671 129.529528 C 95.896153 133.251331 92.877861 137.853659 91.189433 142.251741 C 87.349621 151.674258 85.683887 162.090769 86.337472 172.275802 C 86.977441 180.209597 89.419307 187.172093 96.409035 190.943823 C 102.304917 186.001087 108.663754 179.796568 108.105484 171.53598 C 104.996416 167.519155 107.116028 162.213316 109.399037 158.105716 C 117.759478 140.967265 130.518002 126.53393 144.778864 114.365448 C 149.671673 110.366779 155.163603 106.499735 161.132105 104.080562 C 165.058153 102.573686 170.082588 102.791548 172.869402 106.408959 C 177.249329 109.926517 174.162955 115.168813 175.179643 118.917849 C 179.391635 125.367462 187.36628 126.116362 194.596564 123.09807 C 197.347067 114.324599 198.708703 108.251705 196.55278 99.155981 C 193.425557 88.548841 183.358533 80.211094 172.42914 80.170245 C 171.362525 80.124857 170.295911 80.133935 169.229296 80.170245 Z M 157.183362 141.071657 C 149.540049 149.926826 143.925572 156.576146 134.593831 163.525025 C 136.931305 173.002007 134.843464 182.66508 130.418149 191.266077 C 149.712522 184.75746 164.268405 171.290886 177.417264 155.831785 C 179.990755 153.376302 181.102757 151.451858 176.927075 151.243074 C 169.932808 149.109845 162.203258 146.572664 157.183362 141.071657 Z M 157.183362 141.071657 " stroke="#000000" stroke-width="1.25" stroke-opacity="1" stroke-miterlimit="4"/><path fill="#2f2f2f" d="M 103.160156 -58.871094 C 89.613281 -59.164062 77.675781 -50.195312 69.875 -39.449219 C 61.152344 -27.328125 54.03125 -11.277344 50.6875 3.335938 C 56.105469 -0.398438 69.945312 -2.953125 75.703125 -2.199219 C 79.578125 -13.058594 84.375 -25.90625 93.503906 -33.175781 C 98.898438 -37.757812 107.140625 -37.960938 112.632812 -33.476562 C 119.277344 -28.15625 119.644531 -18.457031 118.59375 -10.570312 C 116.773438 1.144531 112.589844 12.460938 106.785156 22.691406 C 102.566406 29.679688 96.496094 37.171875 87.945312 37.894531 C 80.832031 38.40625 73.953125 33.125 72.398438 25.964844 C 70.898438 23.878906 72.339844 19.34375 70.3125 19.25 C 67.351562 18.355469 59.460938 22.269531 52.554688 27.960938 C 53.589844 39.886719 58.035156 48.6875 68.390625 54.515625 C 78.707031 60.628906 92.023438 62.066406 102.796875 56.257812 C 115.5 49.785156 124.011719 37.175781 129.910156 24.324219 C 136.824219 8.589844 142.175781 -8.921875 139.535156 -26.351562 C 137.976562 -37.421875 131.792969 -47.988281 122.0625 -53.355469 C 116.300781 -56.652344 109.78125 -58.757812 103.160156 -58.871094 Z M 103.160156 -58.871094 " fill-opacity="1" fill-rule="nonzero"/><g clip-path="url(#cbe93c0fa9)"><path stroke-linecap="butt" transform="matrix(0.860638, 0, 0, 0.860638, -73.399049, -70.427237)" fill="none" stroke-linejoin="miter" d="M 205.149238 13.427416 C 189.408733 13.087008 175.538207 23.508057 166.474254 35.994254 C 156.339148 50.078103 148.064944 68.727969 144.179744 85.707562 C 150.475038 81.368484 166.555952 78.400119 173.246121 79.276104 C 177.748595 66.658283 183.322223 51.73022 193.929363 43.283542 C 200.197424 37.959548 209.77426 37.723531 216.155791 42.934055 C 223.876264 49.11588 224.302909 60.385682 223.081976 69.549489 C 220.966903 83.161304 216.105864 96.310163 209.36123 108.19724 C 204.459343 116.317126 197.406072 125.022515 187.470672 125.86219 C 179.205545 126.456771 171.212745 120.320334 169.406309 112.000742 C 167.663416 109.577031 169.338227 104.307502 166.982598 104.198571 C 163.542199 103.159189 154.373854 107.707051 146.349283 114.320061 C 147.552061 128.17697 152.717198 138.402852 164.749516 145.174719 C 176.736446 152.277917 192.209163 153.948189 204.727131 147.199017 C 219.487259 139.67825 229.377271 125.027054 236.230835 110.094452 C 244.264484 91.812227 250.482619 71.464856 247.414401 51.212799 C 245.603426 38.349883 238.41853 26.072471 227.112417 19.83618 C 220.41771 16.005446 212.842478 13.559041 205.149238 13.427416 Z M 205.149238 13.427416 " stroke="#000000" stroke-width="1.25" stroke-opacity="1" stroke-miterlimit="4"/></g><g clip-path="url(#571268bbd7)"><path fill="#2f2f2f" d="M 217.394531 145.234375 C 202.890625 145.234375 191.042969 133.367188 191.042969 118.863281 C 191.042969 104.382812 202.890625 92.511719 217.394531 92.511719 C 231.894531 92.511719 243.761719 104.382812 243.761719 118.863281 C 243.761719 133.59375 232.105469 145.234375 217.394531 145.234375 Z M 121.1875 163.683594 C 106.6875 163.683594 94.816406 151.816406 94.816406 137.332031 C 94.816406 122.832031 106.6875 110.964844 121.1875 110.964844 C 135.671875 110.964844 147.539062 122.832031 147.539062 137.332031 C 147.539062 151.816406 135.671875 163.683594 121.1875 163.683594 Z M 286.160156 165.878906 C 285.054688 157.085938 278.46875 149.851562 269.902344 147.640625 C 266.164062 146.550781 262.652344 146.761719 259.351562 147.429688 C 257.597656 147.867188 255.839844 147.21875 254.753906 146.113281 L 247.710938 137.984375 C 246.625 136.667969 246.394531 134.910156 247.0625 133.367188 C 249.695312 128.308594 251.011719 122.605469 250.785156 116.230469 C 249.695312 99.535156 235.84375 85.929688 219.148438 85.261719 C 200.257812 84.386719 184.667969 99.535156 184.667969 118.214844 C 184.667969 126.992188 188.179688 135.121094 193.886719 141.054688 C 195.429688 142.601562 195.871094 145.003906 194.765625 146.988281 L 180.929688 170.058594 C 179.824219 172.023438 177.855469 173.128906 175.664062 173.128906 C 174.347656 173.128906 173.03125 173.359375 171.921875 173.570312 C 168.414062 174.21875 164.671875 172.902344 162.269531 170.496094 L 156.773438 164.351562 C 152.15625 159.507812 150.839844 153.589844 152.804688 148.304688 C 154.578125 143.6875 155.457031 138.632812 154.789062 133.15625 C 153.261719 117.335938 140.078125 104.820312 124.03125 103.714844 C 103.386719 102.398438 86.25 119.972656 88.882812 140.617188 C 90.640625 154.890625 101.859375 166.757812 116.128906 168.953125 C 120.519531 169.621094 124.910156 169.621094 129.085938 168.511719 C 134.355469 167.425781 139.847656 168.742188 143.359375 172.691406 L 151.277344 181.257812 C 153.683594 183.679688 154.351562 187.191406 153.683594 190.492188 C 153.261719 192.230469 153.261719 194.003906 153.261719 195.972656 C 153.683594 207.398438 163.566406 216.84375 174.996094 216.84375 C 187.300781 217.074219 197.414062 207.171875 197.414062 194.882812 C 197.414062 190.703125 196.308594 186.753906 194.113281 183.453125 C 193.007812 181.699219 192.796875 179.503906 193.886719 177.746094 L 208.617188 153.363281 C 209.703125 151.605469 211.476562 150.730469 213.671875 150.941406 C 214.96875 151.167969 216.289062 151.167969 217.832031 151.167969 C 222.886719 151.167969 227.714844 150.0625 232.105469 147.867188 C 233.878906 146.988281 235.84375 147.429688 237.160156 148.746094 L 243.304688 155.558594 C 244.410156 156.875 244.851562 158.839844 244.183594 160.386719 C 242.882812 163.894531 242.21875 167.847656 242.882812 172.023438 C 244.410156 181.699219 252.539062 189.386719 262.425781 190.492188 C 276.277344 192.019531 288.125 180.152344 286.160156 165.878906 " fill-opacity="1" fill-rule="nonzero"/></g><g clip-path="url(#692e4b66a0)"><path fill="#2f2f2f" d="M 348.304688 375.34375 C 339.320312 375.34375 330.535156 372.066406 323.914062 365.429688 C 320.210938 361.738281 320.210938 355.761719 323.902344 352.070312 C 327.59375 348.378906 333.574219 348.378906 337.261719 352.066406 C 343.714844 358.507812 354.914062 357.808594 362.222656 350.488281 L 391.367188 321.34375 C 395.269531 317.460938 397.496094 312.382812 397.496094 307.417969 C 397.496094 304.453125 396.703125 300.152344 392.960938 296.394531 C 388.941406 292.371094 384.332031 291.710938 381.109375 291.871094 C 376.359375 292.085938 371.703125 294.257812 368 297.960938 L 351.28125 314.667969 C 347.371094 310.761719 331.320312 307.894531 326.972656 312.25 L 354.621094 284.605469 C 361.65625 277.570312 370.734375 273.449219 380.203125 272.996094 C 390.082031 272.542969 399.347656 276.09375 406.292969 283.035156 C 412.796875 289.53125 416.378906 298.191406 416.378906 307.425781 C 416.371094 317.367188 412.121094 327.316406 404.703125 334.710938 L 375.5625 363.847656 C 367.949219 371.496094 358.019531 375.34375 348.304688 375.34375 Z M 348.304688 375.34375 " fill-opacity="1" fill-rule="nonzero"/></g><g clip-path="url(#6691da76da)"><path fill="#2f2f2f" d="M 335.082031 319.925781 C 344.054688 319.925781 352.84375 323.203125 359.476562 329.835938 C 363.175781 333.53125 363.167969 339.507812 359.476562 343.199219 C 355.792969 346.890625 349.808594 346.890625 346.117188 343.199219 C 339.667969 336.761719 328.472656 337.464844 321.15625 344.773438 L 292.011719 373.917969 C 288.117188 377.804688 285.882812 382.878906 285.882812 387.84375 C 285.882812 390.796875 286.675781 395.109375 290.425781 398.867188 C 294.441406 402.878906 299.054688 403.554688 302.273438 403.402344 C 307.023438 403.175781 311.679688 401.007812 315.382812 397.304688 L 332.085938 380.605469 C 335.996094 384.507812 352.046875 387.371094 356.402344 383.019531 L 328.75 410.664062 C 321.722656 417.699219 312.640625 421.820312 303.175781 422.273438 C 293.292969 422.738281 284.023438 419.179688 277.074219 412.234375 C 270.570312 405.738281 266.996094 397.078125 266.996094 387.84375 C 267 377.902344 271.246094 367.953125 278.664062 360.558594 L 307.804688 331.417969 C 315.429688 323.785156 325.371094 319.925781 335.082031 319.925781 Z M 335.082031 319.925781 " fill-opacity="1" fill-rule="nonzero"/></g><g fill="#2f2f2f" fill-opacity="1"><g transform="translate(84.580764, 291.009298)"><g><path d="M 12.6875 -30.75 L 12.6875 -23.015625 L 25.140625 -23.015625 L 25.140625 -15.84375 L 12.6875 -15.84375 L 12.6875 -7.453125 L 26.78125 -7.453125 L 26.78125 0 L 3.375 0 L 3.375 -38.203125 L 26.78125 -38.203125 L 26.78125 -30.75 Z M 12.6875 -30.75 "/></g></g></g><g fill="#2f2f2f" fill-opacity="1"><g transform="translate(112.111945, 291.009298)"><g><path d="M 1.53125 -15.1875 C 1.53125 -18.34375 2.171875 -21.097656 3.453125 -23.453125 C 4.742188 -25.816406 6.539062 -27.628906 8.84375 -28.890625 C 11.144531 -30.160156 13.785156 -30.796875 16.765625 -30.796875 C 20.566406 -30.796875 23.75 -29.796875 26.3125 -27.796875 C 28.875 -25.804688 30.550781 -23 31.34375 -19.375 L 21.4375 -19.375 C 20.601562 -21.695312 18.988281 -22.859375 16.59375 -22.859375 C 14.894531 -22.859375 13.535156 -22.195312 12.515625 -20.875 C 11.503906 -19.550781 11 -17.65625 11 -15.1875 C 11 -12.71875 11.503906 -10.820312 12.515625 -9.5 C 13.535156 -8.175781 14.894531 -7.515625 16.59375 -7.515625 C 18.988281 -7.515625 20.601562 -8.675781 21.4375 -11 L 31.34375 -11 C 30.550781 -7.4375 28.863281 -4.640625 26.28125 -2.609375 C 23.707031 -0.578125 20.535156 0.4375 16.765625 0.4375 C 13.785156 0.4375 11.144531 -0.195312 8.84375 -1.46875 C 6.539062 -2.738281 4.742188 -4.550781 3.453125 -6.90625 C 2.171875 -9.269531 1.53125 -12.03125 1.53125 -15.1875 Z M 1.53125 -15.1875 "/></g></g></g><g fill="#2f2f2f" fill-opacity="1"><g transform="translate(143.12538, 291.009298)"><g><path d="M 17.203125 0.4375 C 14.222656 0.4375 11.546875 -0.195312 9.171875 -1.46875 C 6.796875 -2.738281 4.925781 -4.550781 3.5625 -6.90625 C 2.207031 -9.269531 1.53125 -12.03125 1.53125 -15.1875 C 1.53125 -18.300781 2.21875 -21.046875 3.59375 -23.421875 C 4.96875 -25.804688 6.851562 -27.628906 9.25 -28.890625 C 11.644531 -30.160156 14.332031 -30.796875 17.3125 -30.796875 C 20.28125 -30.796875 22.960938 -30.160156 25.359375 -28.890625 C 27.753906 -27.628906 29.640625 -25.804688 31.015625 -23.421875 C 32.398438 -21.046875 33.09375 -18.300781 33.09375 -15.1875 C 33.09375 -12.0625 32.390625 -9.3125 30.984375 -6.9375 C 29.585938 -4.5625 27.679688 -2.738281 25.265625 -1.46875 C 22.859375 -0.195312 20.171875 0.4375 17.203125 0.4375 Z M 17.203125 -7.625 C 18.972656 -7.625 20.484375 -8.273438 21.734375 -9.578125 C 22.992188 -10.878906 23.625 -12.75 23.625 -15.1875 C 23.625 -17.613281 23.015625 -19.476562 21.796875 -20.78125 C 20.578125 -22.09375 19.082031 -22.75 17.3125 -22.75 C 15.488281 -22.75 13.976562 -22.101562 12.78125 -20.8125 C 11.59375 -19.53125 11 -17.65625 11 -15.1875 C 11 -12.75 11.585938 -10.878906 12.765625 -9.578125 C 13.941406 -8.273438 15.421875 -7.625 17.203125 -7.625 Z M 17.203125 -7.625 "/></g></g></g><g fill="#2f2f2f" fill-opacity="1"><g transform="translate(175.881543, 291.009298)"><g><path d="M 25.625 -37.9375 L 25.625 -33.90625 L 9.140625 -33.90625 L 9.140625 -21.109375 L 22.53125 -21.109375 L 22.53125 -17.09375 L 9.140625 -17.09375 L 9.140625 0 L 4.1875 0 L 4.1875 -37.9375 Z M 25.625 -37.9375 "/></g></g></g><g fill="#2f2f2f" fill-opacity="1"><g transform="translate(201.399549, 291.009298)"><g><path d="M 9.140625 -40.265625 L 9.140625 0 L 4.1875 0 L 4.1875 -40.265625 Z M 9.140625 -40.265625 "/></g></g></g><g fill="#2f2f2f" fill-opacity="1"><g transform="translate(212.879717, 291.009298)"><g><path d="M 17.203125 0.484375 C 14.398438 0.484375 11.863281 -0.144531 9.59375 -1.40625 C 7.332031 -2.675781 5.554688 -4.484375 4.265625 -6.828125 C 2.984375 -9.171875 2.34375 -11.882812 2.34375 -14.96875 C 2.34375 -18.007812 3.003906 -20.703125 4.328125 -23.046875 C 5.648438 -25.390625 7.453125 -27.1875 9.734375 -28.4375 C 12.023438 -29.6875 14.585938 -30.3125 17.421875 -30.3125 C 20.242188 -30.3125 22.796875 -29.6875 25.078125 -28.4375 C 27.367188 -27.1875 29.175781 -25.398438 30.5 -23.078125 C 31.820312 -20.753906 32.484375 -18.050781 32.484375 -14.96875 C 32.484375 -11.882812 31.800781 -9.171875 30.4375 -6.828125 C 29.082031 -4.484375 27.242188 -2.675781 24.921875 -1.40625 C 22.597656 -0.144531 20.023438 0.484375 17.203125 0.484375 Z M 17.203125 -3.859375 C 18.972656 -3.859375 20.640625 -4.273438 22.203125 -5.109375 C 23.765625 -5.953125 25.023438 -7.207031 25.984375 -8.875 C 26.941406 -10.539062 27.421875 -12.570312 27.421875 -14.96875 C 27.421875 -17.363281 26.945312 -19.394531 26 -21.0625 C 25.0625 -22.726562 23.832031 -23.96875 22.3125 -24.78125 C 20.789062 -25.601562 19.140625 -26.015625 17.359375 -26.015625 C 15.546875 -26.015625 13.882812 -25.601562 12.375 -24.78125 C 10.875 -23.96875 9.671875 -22.726562 8.765625 -21.0625 C 7.859375 -19.394531 7.40625 -17.363281 7.40625 -14.96875 C 7.40625 -12.53125 7.847656 -10.476562 8.734375 -8.8125 C 9.617188 -7.144531 10.804688 -5.898438 12.296875 -5.078125 C 13.785156 -4.265625 15.421875 -3.859375 17.203125 -3.859375 Z M 17.203125 -3.859375 "/></g></g></g><g fill="#2f2f2f" fill-opacity="1"><g transform="translate(245.797506, 291.009298)"><g><path d="M 43.921875 -29.828125 L 34.609375 0 L 29.5 0 L 22.3125 -23.671875 L 15.125 0 L 10.015625 0 L 0.65625 -29.828125 L 5.71875 -29.828125 L 12.578125 -4.796875 L 19.96875 -29.828125 L 25.03125 -29.828125 L 32.265625 -4.734375 L 39.015625 -29.828125 Z M 43.921875 -29.828125 "/></g></g></g></svg>